<svg width="50" height="50" viewBox="0 0 50 50" fill="none" xmlns="http://www.w3.org/2000/svg">
<path fill-rule="evenodd" clip-rule="evenodd" d="M50 4.17728C50 3.0694 49.5599 2.00689 48.7765 1.2235C47.9931 0.44011 46.9306 5.56889e-06 45.8227 5.56889e-06H4.18182C3.63279 -0.000891139 3.08897 0.106512 2.5815 0.316066C2.07403 0.52562 1.61288 0.833209 1.22444 1.22122C0.836004 1.60924 0.52791 2.07006 0.317805 2.5773C0.107699 3.08454 -0.000293886 3.62824 5.72205e-06 4.17728V45.8182C-0.000591901 46.3673 0.107092 46.9112 0.316894 47.4187C0.526696 47.9262 0.834498 48.3873 1.22269 48.7757C1.61089 49.1641 2.07186 49.4722 2.57923 49.6822C3.0866 49.8923 3.63041 50.0003 4.17955 50H45.8227C46.3715 50 46.9149 49.8919 47.4218 49.6818C47.9288 49.4717 48.3894 49.1638 48.7773 48.7757C49.1652 48.3876 49.4729 47.9268 49.6827 47.4197C49.8925 46.9127 50.0003 46.3692 50 45.8205V4.17728ZM30.2091 19.0636H23.4386V22.4636C22.4614 20.5091 19.9614 18.75 16.2045 18.75C9.00228 18.75 7.29546 22.6432 7.29546 29.7864V43.0182H14.5841V31.4136C14.5841 27.3455 15.5614 25.05 18.0432 25.05C21.4864 25.05 22.9182 27.525 22.9182 31.4136V43.0182H30.2091V19.0636ZM42.7091 42.7068H35.4182V18.75H42.7091V42.7045V42.7068ZM34.375 10.9364C34.3613 11.5606 34.4723 12.1813 34.7017 12.7621C34.9311 13.3428 35.2742 13.8719 35.7108 14.3183C36.1475 14.7646 36.6689 15.1193 37.2444 15.3614C37.82 15.6035 38.4381 15.7282 39.0625 15.7282C39.6869 15.7282 40.305 15.6035 40.8806 15.3614C41.4561 15.1193 41.9775 14.7646 42.4142 14.3183C42.8508 13.8719 43.1939 13.3428 43.4233 12.7621C43.6527 12.1813 43.7637 11.5606 43.75 10.9364C43.723 9.71104 43.2173 8.54498 42.3412 7.68793C41.465 6.83087 40.2881 6.35095 39.0625 6.35095C37.8369 6.35095 36.66 6.83087 35.7838 7.68793C34.9077 8.54498 34.402 9.71104 34.375 10.9364V10.9364Z" fill="#367AA1"/>
</svg>
