<svg width="76" height="42" viewBox="0 0 76 42" fill="none" xmlns="http://www.w3.org/2000/svg">
<path d="M3.388 20.22C2.39067 20.22 1.40067 20.1467 0.418 20V17.492C1.45933 17.6827 2.36133 17.778 3.124 17.778C4.28267 17.778 4.862 17.2573 4.862 16.216V5.722H8.294V16.106C8.294 17.602 7.89067 18.6653 7.084 19.296C6.27733 19.912 5.04533 20.22 3.388 20.22ZM16.3089 20.22C15.6489 20.22 15.1062 20.198 14.6809 20.154C14.2555 20.11 13.8009 20.022 13.3169 19.89C12.7889 19.7433 12.3635 19.538 12.0409 19.274C11.7182 18.9953 11.4469 18.6067 11.2269 18.108C11.0069 17.624 10.8969 17.0373 10.8969 16.348V13.202C10.8969 12.498 11.0069 11.882 11.2269 11.354C11.4469 10.826 11.7329 10.4153 12.0849 10.122C12.3929 9.87267 12.7962 9.66733 13.2949 9.506C13.8082 9.33 14.3069 9.22 14.7909 9.176C15.3482 9.14667 15.8542 9.132 16.3089 9.132C16.9835 9.132 17.5189 9.154 17.9149 9.198C18.3255 9.22733 18.7729 9.31533 19.2569 9.462C19.7849 9.62333 20.2102 9.84333 20.5329 10.122C20.8702 10.4007 21.1562 10.7967 21.3909 11.31C21.6109 11.838 21.7209 12.4687 21.7209 13.202V16.348C21.7209 17.008 21.6109 17.5873 21.3909 18.086C21.1855 18.5847 20.9142 18.9733 20.5769 19.252C20.2835 19.5013 19.8802 19.7067 19.3669 19.868C18.8682 20.0147 18.3769 20.11 17.8929 20.154C17.4529 20.198 16.9249 20.22 16.3089 20.22ZM16.3089 18.218C16.9102 18.218 17.3649 18.174 17.6729 18.086C17.9809 17.9833 18.1935 17.8293 18.3109 17.624C18.4429 17.4187 18.5089 17.118 18.5089 16.722V12.696C18.5089 12.1093 18.3549 11.6987 18.0469 11.464C17.7389 11.2293 17.1595 11.112 16.3089 11.112C15.4582 11.112 14.8789 11.2293 14.5709 11.464C14.2629 11.6987 14.1089 12.1093 14.1089 12.696V16.722C14.1089 17.118 14.1675 17.4187 14.2849 17.624C14.4169 17.8293 14.6369 17.9833 14.9449 18.086C15.2529 18.174 15.7075 18.218 16.3089 18.218ZM24.2244 9.352H27.3924V10.65C27.6417 9.638 28.7784 9.132 30.8024 9.132C32.1664 9.132 33.1197 9.38133 33.6624 9.88C34.2197 10.364 34.4984 11.134 34.4984 12.19V20H31.2864V12.608C31.2864 12.1973 31.2424 11.8893 31.1544 11.684C31.0811 11.4787 30.9197 11.332 30.6704 11.244C30.4357 11.156 30.0691 11.112 29.5704 11.112C28.9397 11.112 28.4777 11.156 28.1844 11.244C27.8911 11.3173 27.6931 11.4567 27.5904 11.662C27.4877 11.8673 27.4364 12.1827 27.4364 12.608V20H24.2244V9.352ZM40.3224 20.22C39.3251 20.22 38.5771 20.132 38.0784 19.956C37.5944 19.7653 37.2497 19.4353 37.0444 18.966C36.8537 18.482 36.7584 17.7633 36.7584 16.81C36.7584 15.9593 36.8611 15.292 37.0664 14.808C37.2864 14.324 37.6311 13.9793 38.1004 13.774C38.5844 13.554 39.2444 13.444 40.0804 13.444H43.6884V12.718C43.6884 12.2633 43.6224 11.926 43.4904 11.706C43.3731 11.486 43.1457 11.332 42.8084 11.244C42.4857 11.156 41.9944 11.112 41.3344 11.112C40.4251 11.112 39.1784 11.2 37.5944 11.376V9.352C38.7531 9.20533 40.1097 9.132 41.6644 9.132C43.0284 9.132 44.0771 9.23467 44.8104 9.44C45.5584 9.64533 46.0937 9.99733 46.4164 10.496C46.7391 10.9947 46.9004 11.7207 46.9004 12.674V20H43.7544V19.032C43.5051 19.4573 43.1677 19.758 42.7424 19.934C42.3171 20.1247 41.5104 20.22 40.3224 20.22ZM41.5764 18.218C42.2217 18.218 42.6837 18.196 42.9624 18.152C43.1677 18.1227 43.3071 18.0787 43.3804 18.02C43.4684 17.9613 43.5417 17.866 43.6004 17.734C43.6591 17.6313 43.6884 17.4773 43.6884 17.272V15.204H41.4884C40.9897 15.204 40.6377 15.2407 40.4324 15.314C40.2271 15.3727 40.0877 15.5047 40.0144 15.71C39.9411 15.9007 39.9044 16.2453 39.9044 16.744C39.9044 17.228 39.9411 17.5653 40.0144 17.756C40.0877 17.9467 40.2271 18.0713 40.4324 18.13C40.6524 18.1887 41.0337 18.218 41.5764 18.218ZM53.7084 20.22C52.5644 20.22 51.1637 20.11 49.5064 19.89V17.756C51.545 18.064 52.9604 18.218 53.7524 18.218C54.427 18.218 54.9257 18.152 55.2484 18.02C55.571 17.888 55.7324 17.646 55.7324 17.294V16.634C55.7324 16.2673 55.6297 16.0107 55.4244 15.864C55.219 15.7027 54.8157 15.622 54.2144 15.622H52.8284C51.699 15.622 50.8264 15.402 50.2104 14.962C49.5944 14.5073 49.2864 13.8473 49.2864 12.982V11.684C49.2864 10.76 49.7264 10.1073 50.6064 9.726C51.4864 9.33 52.8137 9.132 54.5884 9.132C55.2924 9.132 56.5537 9.198 58.3724 9.33V11.376C56.0844 11.2 54.7937 11.112 54.5004 11.112C53.635 11.112 53.0704 11.1707 52.8064 11.288C52.5717 11.42 52.4544 11.662 52.4544 12.014V12.586C52.4544 12.7767 52.5497 12.9453 52.7404 13.092C52.931 13.224 53.2097 13.29 53.5764 13.29H54.9844C57.595 13.29 58.9004 14.1407 58.9004 15.842V17.184C58.9004 17.6973 58.805 18.1447 58.6144 18.526C58.4237 18.9073 58.1744 19.208 57.8664 19.428C57.573 19.6333 57.1917 19.7947 56.7224 19.912C56.2677 20.0293 55.791 20.11 55.2924 20.154C54.8377 20.198 54.3097 20.22 53.7084 20.22Z" fill="#CCDEEF"/>
<path d="M31.54 22.722H37.612C39.284 22.722 40.604 22.854 41.572 23.118C42.54 23.3673 43.2513 23.8073 43.706 24.438C44.1607 25.0687 44.388 25.9413 44.388 27.056V32.864C44.388 33.9493 44.1753 34.7927 43.75 35.394C43.3247 35.9807 42.628 36.3987 41.66 36.648C40.692 36.8827 39.35 37 37.634 37H31.54V22.722ZM37.48 34.558C38.4187 34.558 39.1227 34.5213 39.592 34.448C40.076 34.36 40.4207 34.1987 40.626 33.964C40.846 33.7293 40.956 33.3627 40.956 32.864V26.99C40.956 26.3153 40.6847 25.846 40.142 25.582C39.614 25.3033 38.7633 25.164 37.59 25.164H34.972V34.558H37.48ZM47.1151 22.502H50.3271V25.098H47.1151V22.502ZM47.1151 26.352H50.3271V37H47.1151V26.352ZM56.2501 37.22C55.2528 37.22 54.5048 37.132 54.0061 36.956C53.5221 36.7653 53.1775 36.4353 52.9721 35.966C52.7815 35.482 52.6861 34.7633 52.6861 33.81C52.6861 32.9593 52.7888 32.292 52.9941 31.808C53.2141 31.324 53.5588 30.9793 54.0281 30.774C54.5121 30.554 55.1721 30.444 56.0081 30.444H59.6161V29.718C59.6161 29.2633 59.5501 28.926 59.4181 28.706C59.3008 28.486 59.0735 28.332 58.7361 28.244C58.4135 28.156 57.9221 28.112 57.2621 28.112C56.3528 28.112 55.1061 28.2 53.5221 28.376V26.352C54.6808 26.2053 56.0375 26.132 57.5921 26.132C58.9561 26.132 60.0048 26.2347 60.7381 26.44C61.4861 26.6453 62.0215 26.9973 62.3441 27.496C62.6668 27.9947 62.8281 28.7207 62.8281 29.674V37H59.6821V36.032C59.4328 36.4573 59.0955 36.758 58.6701 36.934C58.2448 37.1247 57.4381 37.22 56.2501 37.22ZM57.5041 35.218C58.1495 35.218 58.6115 35.196 58.8901 35.152C59.0955 35.1227 59.2348 35.0787 59.3081 35.02C59.3961 34.9613 59.4695 34.866 59.5281 34.734C59.5868 34.6313 59.6161 34.4773 59.6161 34.272V32.204H57.4161C56.9175 32.204 56.5655 32.2407 56.3601 32.314C56.1548 32.3727 56.0155 32.5047 55.9421 32.71C55.8688 32.9007 55.8321 33.2453 55.8321 33.744C55.8321 34.228 55.8688 34.5653 55.9421 34.756C56.0155 34.9467 56.1548 35.0713 56.3601 35.13C56.5801 35.1887 56.9615 35.218 57.5041 35.218ZM69.6361 37.22C68.4921 37.22 67.0914 37.11 65.4341 36.89V34.756C67.4728 35.064 68.8881 35.218 69.6801 35.218C70.3548 35.218 70.8534 35.152 71.1761 35.02C71.4988 34.888 71.6601 34.646 71.6601 34.294V33.634C71.6601 33.2673 71.5574 33.0107 71.3521 32.864C71.1468 32.7027 70.7434 32.622 70.1421 32.622H68.7561C67.6268 32.622 66.7541 32.402 66.1381 31.962C65.5221 31.5073 65.2141 30.8473 65.2141 29.982V28.684C65.2141 27.76 65.6541 27.1073 66.5341 26.726C67.4141 26.33 68.7414 26.132 70.5161 26.132C71.2201 26.132 72.4814 26.198 74.3001 26.33V28.376C72.0121 28.2 70.7214 28.112 70.4281 28.112C69.5628 28.112 68.9981 28.1707 68.7341 28.288C68.4994 28.42 68.3821 28.662 68.3821 29.014V29.586C68.3821 29.7767 68.4774 29.9453 68.6681 30.092C68.8588 30.224 69.1374 30.29 69.5041 30.29H70.9121C73.5228 30.29 74.8281 31.1407 74.8281 32.842V34.184C74.8281 34.6973 74.7328 35.1447 74.5421 35.526C74.3514 35.9073 74.1021 36.208 73.7941 36.428C73.5008 36.6333 73.1194 36.7947 72.6501 36.912C72.1954 37.0293 71.7188 37.11 71.2201 37.154C70.7654 37.198 70.2374 37.22 69.6361 37.22Z" fill="#CCDEEF"/>
</svg>
