<svg width="42" height="32" viewBox="0 0 42 32" fill="none" xmlns="http://www.w3.org/2000/svg">
<path d="M42 28V4C42 1.78667 40.3457 0 38.2963 0H3.7037C1.65432 0 0 1.78667 0 4V28C0 30.2133 1.65432 32 3.7037 32H38.2963C40.3457 32 42 30.2133 42 28ZM38.7654 3.70667C39.5802 4.58667 39.1358 5.49333 38.6914 5.94667L28.6667 15.8667L38.2963 26.6933C38.5926 27.0667 38.7901 27.6533 38.4444 28.0533C38.1235 28.48 37.3827 28.4533 37.0617 28.1867L26.2716 18.24L20.9877 23.44L15.7284 18.24L4.93827 28.1867C4.61728 28.4533 3.87654 28.48 3.55556 28.0533C3.20988 27.6533 3.40741 27.0667 3.7037 26.6933L13.3333 15.8667L3.30864 5.94667C2.8642 5.49333 2.41975 4.58667 3.23457 3.70667C4.04938 2.82667 4.88889 3.25333 5.58025 3.89333L20.9877 17.3333L36.4198 3.89333C37.1111 3.25333 37.9506 2.82667 38.7654 3.70667V3.70667Z" fill="#F2BB05"/>
</svg>
