<svg width="16" height="16" viewBox="0 0 16 16" fill="none" xmlns="http://www.w3.org/2000/svg">
<path d="M15.9628 10.9556C16.1442 10.5236 15.6259 10.1556 15.1913 10.3476C14.3224 10.729 13.3836 10.9251 12.4348 10.9236C8.71475 10.9236 5.69961 7.96892 5.69961 4.32359C5.69825 3.09279 6.04793 1.88713 6.70762 0.84805C6.96007 0.449829 6.65695 -0.10128 6.19473 0.0160525C2.63114 0.925383 0 4.10048 0 7.87736C0 12.3636 3.71115 16 8.28986 16C11.7566 16 14.7255 13.9156 15.9628 10.9556Z" fill="#F2BB05"/>
<path d="M11.2099 0.0916464C10.7388 -0.223019 10.177 0.338757 10.4908 0.809866L11.0508 1.64986C11.278 1.99045 11.3992 2.39068 11.3992 2.80008C11.3992 3.20948 11.278 3.60971 11.0508 3.9503L10.4908 4.7903C10.177 5.26141 10.7397 5.82318 11.2108 5.50852L12.0499 4.94852C12.3905 4.72135 12.7907 4.60012 13.2001 4.60012C13.6095 4.60012 14.0098 4.72135 14.3504 4.94852L15.1904 5.50852C15.6615 5.82318 16.2233 5.26141 15.9086 4.7903L15.3486 3.9503C15.1214 3.60971 15.0002 3.20948 15.0002 2.80008C15.0002 2.39068 15.1214 1.99045 15.3486 1.64986L15.9086 0.809866C16.2233 0.338757 15.6615 -0.223019 15.1895 0.0916464L14.3504 0.651645C14.0098 0.878815 13.6095 1.00004 13.2001 1.00004C12.7907 1.00004 12.3905 0.878815 12.0499 0.651645L11.2099 0.0916464V0.0916464Z" fill="#F2BB05"/>
</svg>
