<svg width="16" height="16" viewBox="0 0 16 16" fill="none" xmlns="http://www.w3.org/2000/svg">
<path d="M8 4.36365C7.03557 4.36365 6.11065 4.74676 5.4287 5.42871C4.74675 6.11066 4.36363 7.03559 4.36363 8.00001C4.36363 8.96443 4.74675 9.88936 5.4287 10.5713C6.11065 11.2533 7.03557 11.6364 8 11.6364C8.96442 11.6364 9.88934 11.2533 10.5713 10.5713C11.2532 9.88936 11.6364 8.96443 11.6364 8.00001C11.6364 7.03559 11.2532 6.11066 10.5713 5.42871C9.88934 4.74676 8.96442 4.36365 8 4.36365V4.36365Z" fill="#F2BB05"/>
<path fill-rule="evenodd" clip-rule="evenodd" d="M8 0C8.19288 0 8.37787 0.0766231 8.51426 0.213013C8.65065 0.349403 8.72727 0.534388 8.72727 0.727273V1.45455C8.72727 1.64743 8.65065 1.83241 8.51426 1.96881C8.37787 2.1052 8.19288 2.18182 8 2.18182C7.80712 2.18182 7.62213 2.1052 7.48574 1.96881C7.34935 1.83241 7.27273 1.64743 7.27273 1.45455V0.727273C7.27273 0.534388 7.34935 0.349403 7.48574 0.213013C7.62213 0.0766231 7.80712 0 8 0V0ZM1.66764 1.66764C1.80402 1.53129 1.98897 1.4547 2.18182 1.4547C2.37466 1.4547 2.55962 1.53129 2.696 1.66764L3.78691 2.75855C3.91939 2.89571 3.99269 3.07942 3.99104 3.27011C3.98938 3.4608 3.91289 3.64321 3.77805 3.77805C3.64321 3.91289 3.4608 3.98938 3.27011 3.99104C3.07942 3.99269 2.89571 3.91939 2.75855 3.78691L1.66764 2.696C1.53129 2.55962 1.4547 2.37466 1.4547 2.18182C1.4547 1.98897 1.53129 1.80402 1.66764 1.66764V1.66764ZM14.3324 1.66764C14.4687 1.80402 14.5453 1.98897 14.5453 2.18182C14.5453 2.37466 14.4687 2.55962 14.3324 2.696L13.2415 3.78691C13.1744 3.85637 13.0941 3.91178 13.0054 3.94989C12.9167 3.98801 12.8212 4.00807 12.7247 4.00891C12.6281 4.00975 12.5323 3.99135 12.4429 3.95478C12.3536 3.91821 12.2724 3.86421 12.2041 3.79592C12.1358 3.72764 12.0818 3.64644 12.0452 3.55706C12.0087 3.46768 11.9903 3.37191 11.9911 3.27534C11.9919 3.17878 12.012 3.08335 12.0501 2.99462C12.0882 2.90588 12.1436 2.82563 12.2131 2.75855L13.304 1.66764C13.4404 1.53129 13.6253 1.4547 13.8182 1.4547C14.011 1.4547 14.196 1.53129 14.3324 1.66764ZM0 8C0 7.80712 0.0766231 7.62213 0.213013 7.48574C0.349403 7.34935 0.534388 7.27273 0.727273 7.27273H1.45455C1.64743 7.27273 1.83241 7.34935 1.96881 7.48574C2.1052 7.62213 2.18182 7.80712 2.18182 8C2.18182 8.19288 2.1052 8.37787 1.96881 8.51426C1.83241 8.65065 1.64743 8.72727 1.45455 8.72727H0.727273C0.534388 8.72727 0.349403 8.65065 0.213013 8.51426C0.0766231 8.37787 0 8.19288 0 8ZM13.8182 8C13.8182 7.80712 13.8948 7.62213 14.0312 7.48574C14.1676 7.34935 14.3526 7.27273 14.5455 7.27273H15.2727C15.4656 7.27273 15.6506 7.34935 15.787 7.48574C15.9234 7.62213 16 7.80712 16 8C16 8.19288 15.9234 8.37787 15.787 8.51426C15.6506 8.65065 15.4656 8.72727 15.2727 8.72727H14.5455C14.3526 8.72727 14.1676 8.65065 14.0312 8.51426C13.8948 8.37787 13.8182 8.19288 13.8182 8ZM3.78691 12.2131C3.92325 12.3495 3.99984 12.5344 3.99984 12.7273C3.99984 12.9201 3.92325 13.1051 3.78691 13.2415L2.696 14.3324C2.55883 14.4648 2.37512 14.5381 2.18444 14.5365C1.99375 14.5348 1.81134 14.4583 1.6765 14.3235C1.54165 14.1887 1.46517 14.0063 1.46351 13.8156C1.46185 13.6249 1.53516 13.4412 1.66764 13.304L2.75855 12.2131C2.89493 12.0767 3.07988 12.0002 3.27273 12.0002C3.46557 12.0002 3.65053 12.0767 3.78691 12.2131V12.2131ZM12.2131 12.2131C12.3495 12.0767 12.5344 12.0002 12.7273 12.0002C12.9201 12.0002 13.1051 12.0767 13.2415 12.2131L14.3324 13.304C14.4648 13.4412 14.5381 13.6249 14.5365 13.8156C14.5348 14.0063 14.4583 14.1887 14.3235 14.3235C14.1887 14.4583 14.0063 14.5348 13.8156 14.5365C13.6249 14.5381 13.4412 14.4648 13.304 14.3324L12.2131 13.2415C12.0767 13.1051 12.0002 12.9201 12.0002 12.7273C12.0002 12.5344 12.0767 12.3495 12.2131 12.2131ZM8 13.8182C8.19288 13.8182 8.37787 13.8948 8.51426 14.0312C8.65065 14.1676 8.72727 14.3526 8.72727 14.5455V15.2727C8.72727 15.4656 8.65065 15.6506 8.51426 15.787C8.37787 15.9234 8.19288 16 8 16C7.80712 16 7.62213 15.9234 7.48574 15.787C7.34935 15.6506 7.27273 15.4656 7.27273 15.2727V14.5455C7.27273 14.3526 7.34935 14.1676 7.48574 14.0312C7.62213 13.8948 7.80712 13.8182 8 13.8182V13.8182Z" fill="#F2BB05"/>
</svg>
